<svg xmlns="http://www.w3.org/2000/svg" xmlns:xlink="http://www.w3.org/1999/xlink" width="1920" zoomAndPan="magnify" viewBox="0 0 1440 809.999993" height="1080" preserveAspectRatio="xMidYMid meet" version="1.0"><defs><filter x="0%" y="0%" width="100%" height="100%" id="58f8705618"><feColorMatrix values="0 0 0 0 1 0 0 0 0 1 0 0 0 0 1 0 0 0 1 0" color-interpolation-filters="sRGB"/></filter><clipPath id="0a418d2a16"><path d="M 0.441406 0.398438 L 297.078125 0.398438 L 297.078125 288.160156 L 0.441406 288.160156 Z M 0.441406 0.398438 " clip-rule="nonzero"/></clipPath><mask id="c5829dde46"><g filter="url(#58f8705618)"><rect x="-887.8" width="2073.6" fill="#000000" y="-438.199998" height="1166.39999" fill-opacity="0.5"/></g></mask><clipPath id="2289c829e9"><rect x="0" width="298" y="0" height="289"/></clipPath><clipPath id="6496d02ef7"><path d="M 4 0.398438 L 293 0.398438 L 293 288.160156 L 4 288.160156 Z M 4 0.398438 " clip-rule="nonzero"/></clipPath><mask id="9464e65002"><g filter="url(#58f8705618)"><rect x="-887.8" width="2073.6" fill="#000000" y="-438.199998" height="1166.39999" fill-opacity="0.5"/></g></mask><clipPath id="ebf9be42df"><path d="M 0.761719 0.398438 L 288.519531 0.398438 L 288.519531 288.160156 L 0.761719 288.160156 Z M 0.761719 0.398438 " clip-rule="nonzero"/></clipPath><clipPath id="4897f8d561"><path d="M 20.210938 19.851562 L 269.0625 19.851562 L 269.0625 268.703125 L 20.210938 268.703125 Z M 20.210938 19.851562 " clip-rule="nonzero"/></clipPath><clipPath id="967bbeac95"><path d="M 144.636719 19.851562 C 75.917969 19.851562 20.210938 75.558594 20.210938 144.277344 C 20.210938 212.996094 75.917969 268.703125 144.636719 268.703125 C 213.355469 268.703125 269.0625 212.996094 269.0625 144.277344 C 269.0625 75.558594 213.355469 19.851562 144.636719 19.851562 Z M 144.636719 19.851562 " clip-rule="nonzero"/></clipPath><clipPath id="3a3f94e406"><rect x="0" width="289" y="0" height="289"/></clipPath><clipPath id="4c8c35098d"><rect x="0" width="289" y="0" height="289"/></clipPath><mask id="caac7bebfc"><g filter="url(#58f8705618)"><rect x="-887.8" width="2073.6" fill="#000000" y="-438.199998" height="1166.39999" fill-opacity="0.5"/></g></mask><clipPath id="7c59ae98dc"><path d="M 0.558594 0.199219 L 158.71875 0.199219 L 158.71875 158.359375 L 0.558594 158.359375 Z M 0.558594 0.199219 " clip-rule="nonzero"/></clipPath><clipPath id="e82a0d89aa"><path d="M 11.449219 11.089844 L 147.835938 11.089844 L 147.835938 147.476562 L 11.449219 147.476562 Z M 11.449219 11.089844 " clip-rule="nonzero"/></clipPath><clipPath id="393b1abaf4"><path d="M 79.644531 11.089844 C 41.980469 11.089844 11.449219 41.621094 11.449219 79.285156 C 11.449219 116.945312 41.980469 147.476562 79.644531 147.476562 C 117.304688 147.476562 147.835938 116.945312 147.835938 79.285156 C 147.835938 41.621094 117.304688 11.089844 79.644531 11.089844 Z M 79.644531 11.089844 " clip-rule="nonzero"/></clipPath><clipPath id="c93f114909"><rect x="0" width="159" y="0" height="159"/></clipPath><clipPath id="191772d1f3"><rect x="0" width="159" y="0" height="159"/></clipPath><clipPath id="58b8fc78b1"><rect x="0" width="298" y="0" height="289"/></clipPath></defs><g transform="matrix(1, 0, 0, 1, 571, 260)"><g clip-path="url(#58b8fc78b1)"><g clip-path="url(#0a418d2a16)"><g mask="url(#c5829dde46)"><g transform="matrix(1, 0, 0, 1, 0, 0.000000000000056843)"><g clip-path="url(#2289c829e9)"><path fill="#ffffff" d="M 146.691406 2.742188 C 146.984375 2.742188 147.273438 2.742188 147.574219 2.742188 C 152.148438 2.75 156.710938 2.792969 161.273438 3.066406 C 161.53125 3.078125 161.789062 3.09375 162.050781 3.105469 C 165.632812 3.316406 169.132812 3.867188 172.65625 4.503906 C 172.867188 4.539062 173.078125 4.578125 173.292969 4.617188 C 173.898438 4.726562 174.5 4.839844 175.101562 4.953125 C 175.453125 5.019531 175.800781 5.082031 176.164062 5.152344 C 177.007812 5.34375 177.738281 5.609375 178.535156 5.941406 C 178.980469 6.054688 179.429688 6.160156 179.878906 6.25 C 180.132812 6.304688 180.386719 6.359375 180.648438 6.414062 C 180.917969 6.472656 181.1875 6.53125 181.464844 6.589844 C 183.996094 7.140625 186.414062 7.847656 188.855469 8.699219 C 189.964844 9.085938 191.082031 9.40625 192.21875 9.71875 C 193.554688 10.089844 194.792969 10.527344 196.042969 11.121094 C 196.71875 11.433594 197.40625 11.710938 198.097656 11.984375 C 199.230469 12.429688 200.347656 12.90625 201.457031 13.40625 C 201.867188 13.59375 202.28125 13.777344 202.695312 13.957031 C 210.359375 17.3125 217.8125 21.421875 224.566406 26.367188 C 224.761719 26.507812 224.953125 26.652344 225.15625 26.796875 C 230.722656 30.894531 236.25 35.257812 241.019531 40.285156 C 244.402344 43.699219 248.574219 44.0625 253.117188 44.371094 C 257.007812 44.644531 260.929688 45.152344 264.410156 47.042969 C 264.695312 47.195312 264.695312 47.195312 264.988281 47.347656 C 266.386719 48.09375 267.664062 48.925781 268.871094 49.957031 C 269.035156 50.085938 269.199219 50.214844 269.371094 50.347656 C 274.359375 54.324219 277.332031 61.179688 280.375 66.644531 C 280.519531 66.902344 280.664062 67.15625 280.8125 67.421875 C 282.875 71.132812 284.820312 74.898438 286.722656 78.691406 C 286.828125 78.902344 286.933594 79.109375 287.042969 79.328125 C 288.179688 81.585938 289.261719 83.839844 290.15625 86.207031 C 290.332031 86.632812 290.507812 87.058594 290.683594 87.484375 C 295.445312 99.089844 295.445312 99.089844 295.335938 103.753906 C 295.347656 104.164062 295.359375 104.570312 295.375 104.980469 C 295.585938 111.914062 292.328125 117.460938 288.730469 123.167969 C 288.558594 123.445312 288.390625 123.71875 288.214844 124.003906 C 288.0625 124.246094 287.910156 124.484375 287.753906 124.734375 C 287.597656 125.027344 287.441406 125.320312 287.28125 125.621094 C 287.179688 125.792969 287.078125 125.96875 286.972656 126.148438 C 285.675781 128.75 285.96875 131.6875 285.988281 134.519531 C 285.988281 135.105469 285.988281 135.695312 285.988281 136.28125 C 285.984375 137.511719 285.988281 138.742188 285.996094 139.96875 C 286.003906 141.539062 286.003906 143.105469 286 144.675781 C 286 145.886719 286 147.101562 286.003906 148.316406 C 286.003906 148.894531 286.003906 149.472656 286.003906 150.050781 C 286 153.953125 286.070312 157.332031 288.324219 160.664062 C 288.449219 160.855469 288.574219 161.050781 288.707031 161.25 C 289.089844 161.84375 289.480469 162.429688 289.871094 163.019531 C 293.441406 168.433594 295.960938 173.371094 295.964844 179.957031 C 295.96875 180.25 295.972656 180.546875 295.976562 180.851562 C 295.980469 183.480469 295.527344 185.824219 294.761719 188.335938 C 294.679688 188.605469 294.597656 188.875 294.515625 189.152344 C 292.21875 196.734375 289.753906 204.152344 286.417969 211.351562 C 286.28125 211.644531 286.144531 211.941406 286.003906 212.246094 C 274.683594 236.800781 274.683594 236.800781 263.816406 241.089844 C 260.203125 242.40625 256.339844 242.652344 252.535156 242.898438 C 246.621094 243.289062 243.535156 245.1875 239.417969 249.433594 C 237.75 251.125 236.101562 252.75 234.226562 254.210938 C 233.523438 254.757812 232.855469 255.332031 232.183594 255.917969 C 229.867188 257.929688 227.386719 259.679688 224.851562 261.40625 C 224.636719 261.554688 224.421875 261.703125 224.199219 261.855469 C 221.492188 263.695312 218.757812 265.464844 215.929688 267.113281 C 215.320312 267.472656 214.714844 267.835938 214.109375 268.199219 C 194.675781 279.800781 171.550781 285.949219 148.976562 285.933594 C 148.578125 285.933594 148.578125 285.933594 148.175781 285.933594 C 143.484375 285.921875 138.777344 285.828125 134.125 285.214844 C 133.703125 285.160156 133.703125 285.160156 133.273438 285.101562 C 128.292969 284.4375 123.265625 283.722656 118.441406 282.292969 C 117.695312 282.082031 116.949219 281.894531 116.199219 281.703125 C 97.234375 276.863281 78.53125 267.226562 63.726562 254.363281 C 62.910156 253.660156 62.074219 252.984375 61.230469 252.308594 C 59.988281 251.300781 58.859375 250.21875 57.738281 249.074219 C 56.058594 247.382812 54.273438 245.96875 52.242188 244.722656 C 52.035156 244.59375 51.828125 244.46875 51.617188 244.335938 C 49.605469 243.21875 47.824219 243.042969 45.550781 242.960938 C 44.835938 242.921875 44.121094 242.878906 43.410156 242.835938 C 43.054688 242.816406 42.703125 242.796875 42.335938 242.777344 C 35.339844 242.3125 29.308594 240.417969 24.480469 235 C 16.480469 224.925781 10.363281 212.289062 6.285156 200.125 C 6.175781 199.800781 6.175781 199.800781 6.066406 199.472656 C 5.914062 199.023438 5.765625 198.570312 5.613281 198.117188 C 5.386719 197.445312 5.160156 196.773438 4.933594 196.097656 C 4.089844 193.582031 3.3125 191.058594 2.628906 188.492188 C 2.425781 187.464844 2.425781 187.464844 1.894531 186.609375 C 0.238281 177.527344 2.359375 170.621094 7.265625 162.972656 C 9.429688 159.585938 10.847656 156.765625 10.871094 152.6875 C 10.871094 152.429688 10.875 152.175781 10.875 151.910156 C 10.882812 151.066406 10.890625 150.222656 10.894531 149.378906 C 10.894531 148.945312 10.894531 148.945312 10.898438 148.5 C 10.90625 146.96875 10.910156 145.433594 10.914062 143.902344 C 10.917969 142.636719 10.925781 141.371094 10.9375 140.109375 C 10.953125 138.578125 10.960938 137.046875 10.960938 135.515625 C 10.964844 134.933594 10.96875 134.351562 10.976562 133.773438 C 11.011719 130.585938 11.007812 127.886719 9.375 125.042969 C 9.226562 124.777344 9.074219 124.515625 8.917969 124.242188 C 8.484375 123.5 8.023438 122.78125 7.558594 122.058594 C 7.226562 121.53125 6.894531 121.003906 6.566406 120.476562 C 6.132812 119.789062 5.699219 119.101562 5.261719 118.414062 C 1.816406 112.949219 0.53125 106.027344 1.96875 99.671875 C 2.125 99.113281 2.292969 98.554688 2.472656 98 C 2.558594 97.695312 2.644531 97.386719 2.734375 97.070312 C 3.265625 95.234375 3.917969 93.488281 4.671875 91.738281 C 5.117188 90.675781 5.511719 89.605469 5.90625 88.527344 C 6.597656 86.652344 7.371094 84.839844 8.238281 83.039062 C 8.558594 82.367188 8.875 81.691406 9.195312 81.015625 C 12.019531 75.019531 15.046875 69.132812 18.398438 63.414062 C 18.730469 62.851562 19.0625 62.285156 19.390625 61.71875 C 23.75 54.214844 27.957031 47.921875 36.707031 45.355469 C 39.792969 44.566406 42.886719 44.328125 46.058594 44.179688 C 51.457031 43.863281 54.828125 41.464844 58.445312 37.71875 C 59.300781 36.851562 60.226562 36.070312 61.160156 35.285156 C 61.4375 35.046875 61.714844 34.808594 62 34.5625 C 68.058594 29.359375 74.648438 24.714844 81.542969 20.6875 C 81.980469 20.429688 82.414062 20.175781 82.851562 19.917969 C 87.011719 17.46875 91.242188 15.316406 95.683594 13.421875 C 96.054688 13.25 96.425781 13.074219 96.796875 12.898438 C 98.28125 12.234375 99.8125 11.714844 101.347656 11.183594 C 102.492188 10.785156 103.625 10.367188 104.742188 9.898438 C 105.816406 9.453125 106.855469 9.203125 107.992188 8.980469 C 108.671875 8.808594 109.253906 8.558594 109.886719 8.261719 C 112.132812 7.214844 114.492188 6.742188 116.9375 6.410156 C 117.65625 6.265625 118.246094 6.085938 118.929688 5.835938 C 120.988281 5.128906 123.15625 4.839844 125.296875 4.484375 C 125.519531 4.449219 125.746094 4.410156 125.976562 4.371094 C 132.886719 3.207031 139.6875 2.722656 146.691406 2.742188 Z M 137.648438 6.953125 C 136.511719 7.09375 135.386719 7.167969 134.246094 7.222656 C 131.746094 7.363281 129.308594 7.746094 126.84375 8.171875 C 126.5 8.230469 126.5 8.230469 126.152344 8.289062 C 104.355469 12.027344 83.207031 21.804688 66.335938 36.148438 C 66.1875 36.277344 66.035156 36.40625 65.875 36.535156 C 63.992188 38.125 62.140625 39.742188 60.332031 41.417969 C 60.175781 41.5625 60.019531 41.707031 59.859375 41.855469 C 59.214844 42.449219 58.574219 43.046875 57.945312 43.65625 C 54.023438 47.339844 48.988281 47.808594 43.894531 48.253906 C 38.050781 48.773438 32.824219 50.238281 28.6875 54.679688 C 24.222656 60.125 21.015625 66.785156 17.71875 72.972656 C 17.5625 73.261719 17.40625 73.550781 17.246094 73.851562 C 15.152344 77.765625 13.195312 81.722656 11.355469 85.757812 C 11.261719 85.957031 11.171875 86.15625 11.078125 86.359375 C 10.082031 88.53125 9.167969 90.699219 8.449219 92.980469 C 8.253906 93.589844 8.042969 94.1875 7.8125 94.78125 C 5.523438 100.800781 4.132812 106.542969 6.785156 112.671875 C 8.15625 115.636719 9.808594 118.425781 11.558594 121.179688 C 14.585938 125.945312 15.085938 129.976562 14.691406 135.566406 C 14.539062 137.992188 14.546875 140.410156 14.566406 142.839844 C 14.570312 143.226562 14.574219 143.613281 14.574219 144 C 14.589844 145.59375 14.601562 147.1875 14.625 148.785156 C 14.636719 149.578125 14.644531 150.375 14.648438 151.171875 C 14.652344 151.910156 14.664062 152.652344 14.675781 153.390625 C 14.6875 156.691406 13.886719 159.617188 12.179688 162.441406 C 12.070312 162.636719 11.957031 162.828125 11.839844 163.027344 C 11.132812 164.238281 10.390625 165.425781 9.644531 166.613281 C 8.773438 168.015625 7.992188 169.441406 7.253906 170.910156 C 7.109375 171.199219 7.109375 171.199219 6.964844 171.488281 C 4.417969 176.652344 4.941406 182.65625 6.5 188.046875 C 6.585938 188.347656 6.671875 188.648438 6.761719 188.960938 C 10.328125 201.1875 15.261719 212.800781 21.808594 223.726562 C 22.148438 224.292969 22.480469 224.855469 22.816406 225.421875 C 26.070312 230.945312 29.511719 235.695312 35.84375 237.816406 C 36.042969 237.890625 36.242188 237.964844 36.445312 238.039062 C 38.703125 238.816406 40.980469 238.882812 43.339844 238.984375 C 48.160156 239.203125 48.160156 239.203125 50.515625 239.832031 C 50.765625 239.886719 51.015625 239.9375 51.277344 239.996094 C 54.871094 240.914062 57.515625 243.511719 60.121094 246.007812 C 62.398438 248.179688 64.746094 250.234375 67.199219 252.203125 C 67.523438 252.46875 67.84375 252.734375 68.167969 253 C 70.78125 255.148438 73.515625 257.078125 76.328125 258.957031 C 76.933594 259.363281 77.535156 259.769531 78.136719 260.179688 C 86.742188 266.011719 96.035156 270.679688 105.75 274.351562 C 106.035156 274.460938 106.320312 274.570312 106.609375 274.683594 C 110.71875 276.246094 114.886719 277.421875 119.144531 278.488281 C 119.386719 278.550781 119.628906 278.609375 119.878906 278.671875 C 124.117188 279.734375 128.375 280.535156 132.703125 281.148438 C 132.9375 281.183594 133.167969 281.21875 133.40625 281.253906 C 136.773438 281.738281 140.15625 281.878906 143.554688 281.890625 C 143.90625 281.894531 144.261719 281.894531 144.625 281.898438 C 145.757812 281.902344 146.890625 281.90625 148.023438 281.90625 C 148.3125 281.90625 148.3125 281.90625 148.609375 281.90625 C 154.40625 281.90625 160.132812 281.851562 165.878906 280.96875 C 166.214844 280.917969 166.550781 280.867188 166.898438 280.816406 C 173.910156 279.722656 180.734375 278.058594 187.453125 275.792969 C 187.914062 275.640625 188.375 275.488281 188.832031 275.339844 C 194.535156 273.433594 200.238281 271.160156 205.550781 268.339844 C 206.257812 267.96875 206.972656 267.609375 207.6875 267.246094 C 218.476562 261.765625 229.121094 254.65625 237.507812 245.839844 C 242.070312 241.054688 246.792969 239.265625 253.34375 238.855469 C 259.914062 238.4375 265.414062 237.085938 270.019531 232.0625 C 280.03125 220.042969 286.160156 203.734375 290.445312 188.910156 C 290.570312 188.484375 290.570312 188.484375 290.695312 188.050781 C 291.964844 183.609375 292.699219 178.75 291.308594 174.238281 C 291.242188 174.003906 291.175781 173.769531 291.105469 173.527344 C 290.019531 170.164062 288.054688 167.140625 286.078125 164.242188 C 283.238281 160.070312 282.308594 156.570312 282.273438 151.5625 C 282.265625 151.117188 282.261719 150.671875 282.253906 150.226562 C 282.238281 149.058594 282.226562 147.890625 282.21875 146.71875 C 282.207031 145.554688 282.191406 144.386719 282.175781 143.21875 C 282.148438 140.804688 282.125 138.394531 282.105469 135.980469 C 282.101562 135.429688 282.097656 134.875 282.09375 134.324219 C 282.085938 133.398438 282.082031 132.472656 282.078125 131.546875 C 282.078125 131.285156 282.074219 131.027344 282.074219 130.757812 C 282.066406 126.277344 284.058594 123.128906 286.359375 119.433594 C 289.949219 113.65625 292.613281 108.214844 291.289062 101.238281 C 290.703125 98.816406 289.855469 96.480469 288.992188 94.144531 C 288.730469 93.433594 288.480469 92.71875 288.230469 92 C 286.671875 87.648438 284.632812 83.535156 282.582031 79.402344 C 282.203125 78.640625 281.828125 77.875 281.453125 77.109375 C 275.488281 64.613281 275.488281 64.613281 267.144531 53.699219 C 266.96875 53.515625 266.789062 53.332031 266.609375 53.140625 C 262.507812 49.207031 257.035156 48.664062 251.660156 48.1875 C 244.925781 47.578125 240.578125 45.480469 235.925781 40.613281 C 235.066406 39.734375 234.132812 38.953125 233.195312 38.164062 C 232.921875 37.921875 232.648438 37.675781 232.363281 37.425781 C 225.605469 31.476562 218.046875 26.390625 210.152344 22.066406 C 209.644531 21.785156 209.136719 21.5 208.628906 21.210938 C 202.097656 17.597656 195.046875 14.816406 187.9375 12.558594 C 187.621094 12.457031 187.304688 12.355469 186.980469 12.253906 C 174.632812 8.34375 161.765625 6.332031 148.8125 6.375 C 148.480469 6.375 148.144531 6.375 147.800781 6.375 C 144.386719 6.386719 141.03125 6.492188 137.648438 6.953125 Z M 137.648438 6.953125 " fill-opacity="1" fill-rule="nonzero"/></g></g></g></g><g clip-path="url(#6496d02ef7)"><g mask="url(#9464e65002)"><g transform="matrix(1, 0, 0, 1, 4, 0)"><g clip-path="url(#4c8c35098d)"><g clip-path="url(#ebf9be42df)"><g transform="matrix(1, 0, 0, 1, 0.000000000000113687, 0)"><g clip-path="url(#3a3f94e406)"><g clip-path="url(#4897f8d561)"><g clip-path="url(#967bbeac95)"><path stroke-linecap="butt" transform="matrix(1.020536, 0, 0, 1.020536, 20.210582, 19.850904)" fill="none" stroke-linejoin="miter" d="M 121.922381 0.000644935 C 54.586419 0.000644935 0.000348701 54.586716 0.000348701 121.922678 C 0.000348701 189.25864 54.586419 243.84471 121.922381 243.84471 C 189.258344 243.84471 243.844414 189.25864 243.844414 121.922678 C 243.844414 54.586716 189.258344 0.000644935 121.922381 0.000644935 Z M 121.922381 0.000644935 " stroke="#ffffff" stroke-width="8" stroke-opacity="1" stroke-miterlimit="4"/></g></g></g></g></g></g></g></g></g><g mask="url(#caac7bebfc)"><g transform="matrix(1, 0, 0, 1, 69, 65)"><g clip-path="url(#191772d1f3)"><g clip-path="url(#7c59ae98dc)"><g><g clip-path="url(#c93f114909)"><g clip-path="url(#e82a0d89aa)"><g clip-path="url(#393b1abaf4)"><path stroke-linecap="butt" transform="matrix(1.020536, 0, 0, 1.020536, 11.450852, 11.091058)" fill="none" stroke-linejoin="miter" d="M 66.821457 -0.00118971 C 29.915286 -0.00118971 -0.00160071 29.915697 -0.00160071 66.821868 C -0.00160071 103.72421 29.915286 133.641097 66.821457 133.641097 C 103.723799 133.641097 133.640686 103.72421 133.640686 66.821868 C 133.640686 29.915697 103.723799 -0.00118971 66.821457 -0.00118971 Z M 66.821457 -0.00118971 " stroke="#ffffff" stroke-width="5" stroke-opacity="1" stroke-miterlimit="4"/></g></g></g></g></g></g></g></g></g></g></svg>