<svg xmlns="http://www.w3.org/2000/svg" xmlns:xlink="http://www.w3.org/1999/xlink" width="1920" zoomAndPan="magnify" viewBox="0 0 1440 809.999993" height="1080" preserveAspectRatio="xMidYMid meet" version="1.0"><defs><filter x="0%" y="0%" width="100%" height="100%" id="c87d357d61"><feColorMatrix values="0 0 0 0 1 0 0 0 0 1 0 0 0 0 1 0 0 0 1 0" color-interpolation-filters="sRGB"/></filter><mask id="b33659a281"><g filter="url(#c87d357d61)"><rect x="-922.8" width="2073.6" fill="#000000" y="-559.199998" height="1166.39999" fill-opacity="0.5"/></g></mask><clipPath id="1a056471fd"><path d="M 0 0.621094 L 26.507812 0.621094 L 26.507812 27 L 0 27 Z M 0 0.621094 " clip-rule="nonzero"/></clipPath><clipPath id="d6653e8914"><rect x="0" width="27" y="0" height="28"/></clipPath><mask id="169e906a5b"><g filter="url(#c87d357d61)"><rect x="-922.8" width="2073.6" fill="#000000" y="-559.199998" height="1166.39999" fill-opacity="0.75"/></g></mask><clipPath id="cbfd6e8392"><path d="M 0.359375 0.316406 L 26.796875 0.316406 L 26.796875 26.839844 L 0.359375 26.839844 Z M 0.359375 0.316406 " clip-rule="nonzero"/></clipPath><clipPath id="058685d8aa"><rect x="0" width="27" y="0" height="27"/></clipPath><clipPath id="ecb3be68e6"><path d="M 66.550781 10.621094 L 93.085938 10.621094 L 93.085938 37 L 66.550781 37 Z M 66.550781 10.621094 " clip-rule="nonzero"/></clipPath><clipPath id="c469c227f7"><path d="M 100 10.621094 L 126.53125 10.621094 L 126.53125 37 L 100 37 Z M 100 10.621094 " clip-rule="nonzero"/></clipPath><clipPath id="d8b788b444"><path d="M 90 0.601562 L 137 0.601562 L 137 46.199219 L 90 46.199219 Z M 90 0.601562 " clip-rule="nonzero"/></clipPath><clipPath id="341dc0154e"><path d="M 13.15625 13.242188 L 33.566406 13.242188 L 33.566406 33.652344 L 13.15625 33.652344 Z M 13.15625 13.242188 " clip-rule="nonzero"/></clipPath><clipPath id="fb0789e481"><path d="M 23.378906 13.242188 C 17.734375 13.242188 13.15625 17.820312 13.15625 23.464844 C 13.15625 29.109375 17.734375 33.683594 23.378906 33.683594 C 29.023438 33.683594 33.601562 29.109375 33.601562 23.464844 C 33.601562 17.820312 29.023438 13.242188 23.378906 13.242188 Z M 23.378906 13.242188 " clip-rule="nonzero"/></clipPath><clipPath id="94cfeb5ef0"><rect x="0" width="47" y="0" height="47"/></clipPath><mask id="91dff877ab"><g filter="url(#c87d357d61)"><rect x="-922.8" width="2073.6" fill="#000000" y="-559.199998" height="1166.39999" fill-opacity="0.84"/></g></mask><clipPath id="5da12f3662"><path d="M 0.445312 0.316406 L 26.980469 0.316406 L 26.980469 26.839844 L 0.445312 26.839844 Z M 0.445312 0.316406 " clip-rule="nonzero"/></clipPath><clipPath id="d5f6293ae9"><rect x="0" width="28" y="0" height="27"/></clipPath><clipPath id="ebee23a04b"><path d="M 9.140625 8.777344 L 32.519531 8.777344 L 32.519531 32.15625 L 9.140625 32.15625 Z M 9.140625 8.777344 " clip-rule="nonzero"/></clipPath><clipPath id="e2d8bd4858"><path d="M 20.828125 8.777344 C 14.375 8.777344 9.140625 14.011719 9.140625 20.46875 C 9.140625 26.921875 14.375 32.15625 20.828125 32.15625 C 27.285156 32.15625 32.519531 26.921875 32.519531 20.46875 C 32.519531 14.011719 27.285156 8.777344 20.828125 8.777344 Z M 20.828125 8.777344 " clip-rule="nonzero"/></clipPath><clipPath id="41d95040f6"><rect x="0" width="42" y="0" height="41"/></clipPath><mask id="dcfa56dc0d"><g filter="url(#c87d357d61)"><rect x="-922.8" width="2073.6" fill="#000000" y="-559.199998" height="1166.39999" fill-opacity="0.68"/></g></mask><clipPath id="df05898627"><path d="M 0.0390625 0.316406 L 26.429688 0.316406 L 26.429688 26.839844 L 0.0390625 26.839844 Z M 0.0390625 0.316406 " clip-rule="nonzero"/></clipPath><clipPath id="89a9677be1"><rect x="0" width="27" y="0" height="27"/></clipPath><clipPath id="ecd67600f0"><path d="M 200 10 L 227.039062 10 L 227.039062 37 L 200 37 Z M 200 10 " clip-rule="nonzero"/></clipPath><mask id="576df4174e"><g filter="url(#c87d357d61)"><rect x="-922.8" width="2073.6" fill="#000000" y="-559.199998" height="1166.39999" fill-opacity="0.5"/></g></mask><clipPath id="19ec4919aa"><path d="M 0.398438 0.316406 L 26.875 0.316406 L 26.875 26.839844 L 0.398438 26.839844 Z M 0.398438 0.316406 " clip-rule="nonzero"/></clipPath><clipPath id="db7cc3d1d9"><rect x="0" width="28" y="0" height="27"/></clipPath><clipPath id="fdcccceebf"><rect x="0" width="228" y="0" height="47"/></clipPath></defs><g transform="matrix(1, 0, 0, 1, 606, 381)"><g clip-path="url(#fdcccceebf)"><g mask="url(#b33659a281)"><g transform="matrix(1, 0, 0, 1, -0.000000000000113687, 10)"><g clip-path="url(#d6653e8914)"><g clip-path="url(#1a056471fd)"><path fill="#ffffff" d="M 26.507812 13.773438 C 26.507812 21.039062 20.621094 26.925781 13.355469 26.925781 C 6.089844 26.925781 0.203125 21.039062 0.203125 13.773438 C 0.203125 6.507812 6.089844 0.621094 13.355469 0.621094 C 20.621094 0.621094 26.507812 6.507812 26.507812 13.773438 Z M 26.507812 13.773438 " fill-opacity="1" fill-rule="nonzero"/></g></g></g></g><g mask="url(#169e906a5b)"><g transform="matrix(1, 0, 0, 1, 33, 10)"><g clip-path="url(#058685d8aa)"><g clip-path="url(#cbfd6e8392)"><path fill="#ffffff" d="M 26.796875 13.464844 C 26.796875 20.730469 20.910156 26.617188 13.644531 26.617188 C 6.378906 26.617188 0.492188 20.730469 0.492188 13.464844 C 0.492188 6.203125 6.378906 0.316406 13.644531 0.316406 C 20.910156 0.316406 26.796875 6.203125 26.796875 13.464844 Z M 26.796875 13.464844 " fill-opacity="1" fill-rule="nonzero"/></g></g></g></g><g clip-path="url(#ecb3be68e6)"><path fill="#ffffff" d="M 93.085938 23.773438 C 93.085938 31.039062 87.199219 36.925781 79.933594 36.925781 C 72.667969 36.925781 66.78125 31.039062 66.78125 23.773438 C 66.78125 16.507812 72.667969 10.621094 79.933594 10.621094 C 87.199219 10.621094 93.085938 16.507812 93.085938 23.773438 Z M 93.085938 23.773438 " fill-opacity="1" fill-rule="nonzero"/></g><g clip-path="url(#c469c227f7)"><path fill="#ffffff" d="M 126.53125 23.773438 C 126.53125 31.039062 120.644531 36.925781 113.382812 36.925781 C 106.117188 36.925781 100.230469 31.039062 100.230469 23.773438 C 100.230469 16.507812 106.117188 10.621094 113.382812 10.621094 C 120.644531 10.621094 126.53125 16.507812 126.53125 23.773438 Z M 126.53125 23.773438 " fill-opacity="1" fill-rule="nonzero"/></g><g clip-path="url(#d8b788b444)"><g transform="matrix(1, 0, 0, 1, 90, 0.000000000000056843)"><g clip-path="url(#94cfeb5ef0)"><g clip-path="url(#341dc0154e)"><g clip-path="url(#fb0789e481)"><path stroke-linecap="butt" transform="matrix(1.020536, 0, 0, 1.020536, 13.157138, 13.242217)" fill="none" stroke-linejoin="miter" d="M 10.016081 -0.0000287949 C 4.485131 -0.0000287949 -0.000870587 4.485973 -0.000870587 10.016923 C -0.000870587 15.547872 4.485131 20.030047 10.016081 20.030047 C 15.547031 20.030047 20.033033 15.547872 20.033033 10.016923 C 20.033033 4.485973 15.547031 -0.0000287949 10.016081 -0.0000287949 Z M 10.016081 -0.0000287949 " stroke="#000000" stroke-width="6" stroke-opacity="1" stroke-miterlimit="4"/></g></g></g></g></g><g mask="url(#91dff877ab)"><g transform="matrix(1, 0, 0, 1, 133, 10)"><g clip-path="url(#d5f6293ae9)"><g clip-path="url(#5da12f3662)"><path fill="#ffffff" d="M 26.980469 13.464844 C 26.980469 20.730469 21.09375 26.617188 13.828125 26.617188 C 6.5625 26.617188 0.675781 20.730469 0.675781 13.464844 C 0.675781 6.203125 6.5625 0.316406 13.828125 0.316406 C 21.09375 0.316406 26.980469 6.203125 26.980469 13.464844 Z M 26.980469 13.464844 " fill-opacity="1" fill-rule="nonzero"/></g></g></g></g><g transform="matrix(1, 0, 0, 1, 126, 3)"><g clip-path="url(#41d95040f6)"><g clip-path="url(#ebee23a04b)"><g clip-path="url(#e2d8bd4858)"><path stroke-linecap="butt" transform="matrix(1.020536, 0, 0, 1.020536, 9.14118, 8.778604)" fill="none" stroke-linejoin="miter" d="M 11.451775 -0.00123473 C 5.128503 -0.00123473 -0.000543731 5.127812 -0.000543731 11.454912 C -0.000543731 17.778185 5.128503 22.907231 11.451775 22.907231 C 17.778876 22.907231 22.907922 17.778185 22.907922 11.454912 C 22.907922 5.127812 17.778876 -0.00123473 11.451775 -0.00123473 Z M 11.451775 -0.00123473 " stroke="#000000" stroke-width="4" stroke-opacity="1" stroke-miterlimit="4"/></g></g></g></g><g mask="url(#dcfa56dc0d)"><g transform="matrix(1, 0, 0, 1, 167, 10)"><g clip-path="url(#89a9677be1)"><g clip-path="url(#df05898627)"><path fill="#ffffff" d="M 26.429688 13.464844 C 26.429688 20.730469 20.542969 26.617188 13.277344 26.617188 C 6.011719 26.617188 0.125 20.730469 0.125 13.464844 C 0.125 6.203125 6.011719 0.316406 13.277344 0.316406 C 20.542969 0.316406 26.429688 6.203125 26.429688 13.464844 Z M 26.429688 13.464844 " fill-opacity="1" fill-rule="nonzero"/></g></g></g></g><g clip-path="url(#ecd67600f0)"><g mask="url(#576df4174e)"><g transform="matrix(1, 0, 0, 1, 200, 10)"><g clip-path="url(#db7cc3d1d9)"><g clip-path="url(#19ec4919aa)"><path fill="#ffffff" d="M 26.875 13.464844 C 26.875 20.730469 20.988281 26.617188 13.722656 26.617188 C 6.460938 26.617188 0.574219 20.730469 0.574219 13.464844 C 0.574219 6.203125 6.460938 0.316406 13.722656 0.316406 C 20.988281 0.316406 26.875 6.203125 26.875 13.464844 Z M 26.875 13.464844 " fill-opacity="1" fill-rule="nonzero"/></g></g></g></g></g></g></g></svg>