<svg xmlns="http://www.w3.org/2000/svg" xmlns:xlink="http://www.w3.org/1999/xlink" width="1920" zoomAndPan="magnify" viewBox="0 0 1440 809.999993" height="1080" preserveAspectRatio="xMidYMid meet" version="1.0"><defs><filter x="0%" y="0%" width="100%" height="100%" id="5d28f64fbb"><feColorMatrix values="0 0 0 0 1 0 0 0 0 1 0 0 0 0 1 0 0 0 1 0" color-interpolation-filters="sRGB"/></filter><clipPath id="9868c3dffd"><path d="M 0.441406 1 L 297.078125 1 L 297.078125 288.640625 L 0.441406 288.640625 Z M 0.441406 1 " clip-rule="nonzero"/></clipPath><mask id="e91d8dfd5c"><g filter="url(#5d28f64fbb)"><rect x="-887.8" width="2073.6" fill="#000000" y="-438.199998" height="1166.39999" fill-opacity="0.5"/></g></mask><clipPath id="10c26ad005"><rect x="0" width="298" y="0" height="288"/></clipPath><clipPath id="0cb845b2de"><path d="M 4 0.878906 L 293 0.878906 L 293 288.640625 L 4 288.640625 Z M 4 0.878906 " clip-rule="nonzero"/></clipPath><mask id="bb63ee9b81"><g filter="url(#5d28f64fbb)"><rect x="-887.8" width="2073.6" fill="#000000" y="-438.199998" height="1166.39999" fill-opacity="0.5"/></g></mask><clipPath id="0c36a0eb0e"><path d="M 0.519531 0.878906 L 288.519531 0.878906 L 288.519531 288.640625 L 0.519531 288.640625 Z M 0.519531 0.878906 " clip-rule="nonzero"/></clipPath><clipPath id="3dc761826a"><path d="M 20.082031 20.34375 L 268.933594 20.34375 L 268.933594 269.195312 L 20.082031 269.195312 Z M 20.082031 20.34375 " clip-rule="nonzero"/></clipPath><clipPath id="91cd12b72e"><path d="M 144.507812 20.34375 C 75.792969 20.34375 20.082031 76.050781 20.082031 144.769531 C 20.082031 213.488281 75.792969 269.195312 144.507812 269.195312 C 213.226562 269.195312 268.933594 213.488281 268.933594 144.769531 C 268.933594 76.050781 213.226562 20.34375 144.507812 20.34375 Z M 144.507812 20.34375 " clip-rule="nonzero"/></clipPath><clipPath id="76356fd294"><rect x="0" width="289" y="0" height="289"/></clipPath><clipPath id="30744bd8a2"><rect x="0" width="289" y="0" height="289"/></clipPath><mask id="6d711c4487"><g filter="url(#5d28f64fbb)"><rect x="-887.8" width="2073.6" fill="#000000" y="-438.199998" height="1166.39999" fill-opacity="0.5"/></g></mask><clipPath id="1a64ea622c"><path d="M 0.558594 0.921875 L 158.480469 0.921875 L 158.480469 158.839844 L 0.558594 158.839844 Z M 0.558594 0.921875 " clip-rule="nonzero"/></clipPath><clipPath id="8b91649acd"><path d="M 11.324219 11.582031 L 147.710938 11.582031 L 147.710938 147.96875 L 11.324219 147.96875 Z M 11.324219 11.582031 " clip-rule="nonzero"/></clipPath><clipPath id="0eca9d7004"><path d="M 79.515625 11.582031 C 41.855469 11.582031 11.324219 42.113281 11.324219 79.777344 C 11.324219 117.4375 41.855469 147.96875 79.515625 147.96875 C 117.179688 147.96875 147.710938 117.4375 147.710938 79.777344 C 147.710938 42.113281 117.179688 11.582031 79.515625 11.582031 Z M 79.515625 11.582031 " clip-rule="nonzero"/></clipPath><clipPath id="57a7b9ec88"><rect x="0" width="159" y="0" height="159"/></clipPath><clipPath id="df64d9001a"><rect x="0" width="159" y="0" height="159"/></clipPath><mask id="f09ad751cb"><g filter="url(#5d28f64fbb)"><rect x="-887.8" width="2073.6" fill="#000000" y="-438.199998" height="1166.39999" fill-opacity="0.5"/></g></mask><clipPath id="adb4cebc76"><path d="M 0.949219 0.355469 L 27.441406 0.355469 L 27.441406 26.761719 L 0.949219 26.761719 Z M 0.949219 0.355469 " clip-rule="nonzero"/></clipPath><clipPath id="5e0058b692"><rect x="0" width="28" y="0" height="27"/></clipPath><mask id="20412cfe01"><g filter="url(#5d28f64fbb)"><rect x="-887.8" width="2073.6" fill="#000000" y="-438.199998" height="1166.39999" fill-opacity="0.5"/></g></mask><clipPath id="eb7da98d57"><path d="M 0.335938 0.355469 L 26.800781 0.355469 L 26.800781 26.761719 L 0.335938 26.761719 Z M 0.335938 0.355469 " clip-rule="nonzero"/></clipPath><clipPath id="6eac143e60"><rect x="0" width="27" y="0" height="27"/></clipPath><mask id="3111a39d34"><g filter="url(#5d28f64fbb)"><rect x="-887.8" width="2073.6" fill="#000000" y="-438.199998" height="1166.39999" fill-opacity="0.5"/></g></mask><clipPath id="99646cb056"><path d="M 0.335938 0.675781 L 26.800781 0.675781 L 26.800781 27 L 0.335938 27 Z M 0.335938 0.675781 " clip-rule="nonzero"/></clipPath><clipPath id="c78d5cd4f0"><rect x="0" width="27" y="0" height="28"/></clipPath><mask id="1407d377d2"><g filter="url(#5d28f64fbb)"><rect x="-887.8" width="2073.6" fill="#000000" y="-438.199998" height="1166.39999" fill-opacity="0.5"/></g></mask><clipPath id="7837eefbe2"><path d="M 0.949219 0.675781 L 27.441406 0.675781 L 27.441406 27 L 0.949219 27 Z M 0.949219 0.675781 " clip-rule="nonzero"/></clipPath><clipPath id="e0f3173861"><rect x="0" width="28" y="0" height="28"/></clipPath><mask id="835208e6cf"><g filter="url(#5d28f64fbb)"><rect x="-887.8" width="2073.6" fill="#000000" y="-438.199998" height="1166.39999" fill-opacity="0.5"/></g></mask><clipPath id="c5f9abb793"><path d="M 0.308594 0.351562 L 26.71875 0.351562 L 26.71875 26.878906 L 0.308594 26.878906 Z M 0.308594 0.351562 " clip-rule="nonzero"/></clipPath><clipPath id="1df297f46c"><rect x="0" width="27" y="0" height="27"/></clipPath><mask id="b993ca1fa7"><g filter="url(#5d28f64fbb)"><rect x="-887.8" width="2073.6" fill="#000000" y="-438.199998" height="1166.39999" fill-opacity="0.5"/></g></mask><clipPath id="2514014426"><path d="M 0.613281 0.65625 L 13.878906 0.65625 L 13.878906 13.839844 L 0.613281 13.839844 Z M 0.613281 0.65625 " clip-rule="nonzero"/></clipPath><clipPath id="beee437460"><rect x="0" width="14" y="0" height="14"/></clipPath><mask id="426437a04e"><g filter="url(#5d28f64fbb)"><rect x="-887.8" width="2073.6" fill="#000000" y="-438.199998" height="1166.39999" fill-opacity="0.5"/></g></mask><clipPath id="42b08790ee"><path d="M 0.15625 0.199219 L 13.320312 0.199219 L 13.320312 13.464844 L 0.15625 13.464844 Z M 0.15625 0.199219 " clip-rule="nonzero"/></clipPath><clipPath id="a7278c9ffa"><rect x="0" width="14" y="0" height="14"/></clipPath><mask id="06e14bf2df"><g filter="url(#5d28f64fbb)"><rect x="-887.8" width="2073.6" fill="#000000" y="-438.199998" height="1166.39999" fill-opacity="0.5"/></g></mask><clipPath id="e9a2813c01"><path d="M 0.121094 0.519531 L 26.519531 0.519531 L 26.519531 27 L 0.121094 27 Z M 0.121094 0.519531 " clip-rule="nonzero"/></clipPath><clipPath id="c24d1f54f4"><rect x="0" width="27" y="0" height="28"/></clipPath><mask id="e5419d41a8"><g filter="url(#5d28f64fbb)"><rect x="-887.8" width="2073.6" fill="#000000" y="-438.199998" height="1166.39999" fill-opacity="0.5"/></g></mask><clipPath id="bc312611b1"><path d="M 0.425781 0.824219 L 13.691406 0.824219 L 13.691406 14 L 0.425781 14 Z M 0.425781 0.824219 " clip-rule="nonzero"/></clipPath><clipPath id="540698863d"><rect x="0" width="14" y="0" height="14"/></clipPath><mask id="2131c19e1c"><g filter="url(#5d28f64fbb)"><rect x="-887.8" width="2073.6" fill="#000000" y="-438.199998" height="1166.39999" fill-opacity="0.5"/></g></mask><clipPath id="0f55fa2f65"><path d="M 0.96875 0.371094 L 14.121094 0.371094 L 14.121094 13.636719 L 0.96875 13.636719 Z M 0.96875 0.371094 " clip-rule="nonzero"/></clipPath><clipPath id="a05dbb8b13"><rect x="0" width="15" y="0" height="14"/></clipPath><mask id="8945890172"><g filter="url(#5d28f64fbb)"><rect x="-887.8" width="2073.6" fill="#000000" y="-438.199998" height="1166.39999" fill-opacity="0.5"/></g></mask><clipPath id="b40934e71f"><path d="M 0.121094 0.351562 L 26.425781 0.351562 L 26.425781 26.878906 L 0.121094 26.878906 Z M 0.121094 0.351562 " clip-rule="nonzero"/></clipPath><clipPath id="0cee879bc4"><rect x="0" width="27" y="0" height="27"/></clipPath><mask id="fdf21720fd"><g filter="url(#5d28f64fbb)"><rect x="-887.8" width="2073.6" fill="#000000" y="-438.199998" height="1166.39999" fill-opacity="0.5"/></g></mask><clipPath id="1e836a79f1"><path d="M 0.921875 0.65625 L 14.117188 0.65625 L 14.117188 13.839844 L 0.921875 13.839844 Z M 0.921875 0.65625 " clip-rule="nonzero"/></clipPath><clipPath id="04fbabbd14"><rect x="0" width="15" y="0" height="14"/></clipPath><mask id="f8408ea310"><g filter="url(#5d28f64fbb)"><rect x="-887.8" width="2073.6" fill="#000000" y="-438.199998" height="1166.39999" fill-opacity="0.5"/></g></mask><clipPath id="ad7227e359"><path d="M 0.304688 0.199219 L 13.574219 0.199219 L 13.574219 13.464844 L 0.304688 13.464844 Z M 0.304688 0.199219 " clip-rule="nonzero"/></clipPath><clipPath id="74a0c53a2f"><rect x="0" width="14" y="0" height="14"/></clipPath><mask id="7701caacac"><g filter="url(#5d28f64fbb)"><rect x="-887.8" width="2073.6" fill="#000000" y="-438.199998" height="1166.39999" fill-opacity="0.5"/></g></mask><clipPath id="f1d81f884c"><path d="M 0.308594 0.398438 L 26.71875 0.398438 L 26.71875 26.824219 L 0.308594 26.824219 Z M 0.308594 0.398438 " clip-rule="nonzero"/></clipPath><clipPath id="a8c765af44"><rect x="0" width="27" y="0" height="28"/></clipPath><mask id="dad78e8e92"><g filter="url(#5d28f64fbb)"><rect x="-887.8" width="2073.6" fill="#000000" y="-438.199998" height="1166.39999" fill-opacity="0.5"/></g></mask><clipPath id="9b81760f37"><path d="M 0.613281 0.25 L 13.878906 0.25 L 13.878906 13.515625 L 0.613281 13.515625 Z M 0.613281 0.25 " clip-rule="nonzero"/></clipPath><clipPath id="c5344331a6"><rect x="0" width="14" y="0" height="14"/></clipPath><mask id="348539c976"><g filter="url(#5d28f64fbb)"><rect x="-887.8" width="2073.6" fill="#000000" y="-438.199998" height="1166.39999" fill-opacity="0.5"/></g></mask><clipPath id="4cc2465939"><path d="M 0.15625 0.800781 L 13.320312 0.800781 L 13.320312 13.972656 L 0.15625 13.972656 Z M 0.15625 0.800781 " clip-rule="nonzero"/></clipPath><clipPath id="d14bf9f02d"><rect x="0" width="14" y="0" height="14"/></clipPath><clipPath id="cb7115c2f6"><rect x="0" width="298" y="0" height="289"/></clipPath></defs><g transform="matrix(1, 0, 0, 1, 571, 260)"><g clip-path="url(#cb7115c2f6)"><g clip-path="url(#9868c3dffd)"><g mask="url(#e91d8dfd5c)"><g transform="matrix(1, 0, 0, 1, 0, 1)"><g clip-path="url(#10c26ad005)"><path fill="#ffffff" d="M 146.566406 2.234375 C 146.855469 2.234375 147.148438 2.234375 147.449219 2.234375 C 152.019531 2.242188 156.582031 2.285156 161.148438 2.554688 C 161.40625 2.570312 161.660156 2.585938 161.925781 2.597656 C 165.503906 2.808594 169.003906 3.359375 172.527344 3.996094 C 172.738281 4.03125 172.949219 4.070312 173.167969 4.109375 C 173.769531 4.21875 174.375 4.332031 174.976562 4.445312 C 175.324219 4.511719 175.675781 4.574219 176.035156 4.644531 C 176.882812 4.835938 177.609375 5.101562 178.410156 5.433594 C 178.855469 5.546875 179.300781 5.652344 179.75 5.742188 C 180.007812 5.796875 180.261719 5.851562 180.523438 5.90625 C 180.792969 5.964844 181.0625 6.023438 181.339844 6.082031 C 183.867188 6.632812 186.289062 7.339844 188.726562 8.191406 C 189.839844 8.578125 190.957031 8.898438 192.09375 9.210938 C 193.429688 9.582031 194.664062 10.019531 195.917969 10.613281 C 196.59375 10.925781 197.277344 11.203125 197.972656 11.476562 C 199.105469 11.921875 200.21875 12.398438 201.328125 12.898438 C 201.742188 13.085938 202.15625 13.269531 202.570312 13.449219 C 210.230469 16.804688 217.6875 20.914062 224.4375 25.859375 C 224.632812 26 224.828125 26.144531 225.027344 26.289062 C 230.597656 30.386719 236.121094 34.75 240.890625 39.777344 C 244.277344 43.191406 248.445312 43.554688 252.988281 43.863281 C 256.882812 44.136719 260.804688 44.644531 264.285156 46.535156 C 264.570312 46.6875 264.570312 46.6875 264.863281 46.839844 C 266.261719 47.585938 267.535156 48.417969 268.742188 49.449219 C 268.910156 49.578125 269.074219 49.707031 269.246094 49.839844 C 274.234375 53.816406 277.207031 60.671875 280.25 66.136719 C 280.394531 66.394531 280.539062 66.648438 280.683594 66.914062 C 282.75 70.625 284.695312 74.390625 286.597656 78.183594 C 286.703125 78.390625 286.808594 78.601562 286.917969 78.820312 C 288.054688 81.078125 289.132812 83.332031 290.03125 85.699219 C 290.203125 86.125 290.378906 86.550781 290.554688 86.976562 C 295.320312 98.582031 295.320312 98.582031 295.210938 103.246094 C 295.222656 103.65625 295.234375 104.0625 295.25 104.472656 C 295.460938 111.40625 292.199219 116.953125 288.601562 122.660156 C 288.433594 122.9375 288.261719 123.210938 288.085938 123.492188 C 287.933594 123.734375 287.785156 123.976562 287.628906 124.226562 C 287.472656 124.519531 287.316406 124.8125 287.15625 125.109375 C 287.050781 125.285156 286.949219 125.460938 286.84375 125.640625 C 285.550781 128.242188 285.84375 131.179688 285.859375 134.011719 C 285.859375 134.597656 285.859375 135.1875 285.859375 135.773438 C 285.859375 137.003906 285.863281 138.234375 285.871094 139.460938 C 285.878906 141.03125 285.875 142.597656 285.875 144.167969 C 285.871094 145.378906 285.875 146.59375 285.878906 147.808594 C 285.878906 148.386719 285.878906 148.964844 285.878906 149.542969 C 285.875 153.445312 285.945312 156.820312 288.199219 160.15625 C 288.324219 160.347656 288.449219 160.542969 288.578125 160.742188 C 288.964844 161.335938 289.351562 161.921875 289.742188 162.511719 C 293.316406 167.921875 295.835938 172.863281 295.839844 179.449219 C 295.84375 179.742188 295.847656 180.039062 295.851562 180.339844 C 295.855469 182.96875 295.398438 185.316406 294.632812 187.828125 C 294.554688 188.097656 294.472656 188.367188 294.386719 188.644531 C 292.09375 196.222656 289.628906 203.644531 286.292969 210.84375 C 286.15625 211.136719 286.019531 211.433594 285.878906 211.738281 C 274.554688 236.292969 274.554688 236.292969 263.691406 240.582031 C 260.078125 241.898438 256.214844 242.144531 252.410156 242.390625 C 246.496094 242.78125 243.410156 244.679688 239.289062 248.925781 C 237.625 250.617188 235.976562 252.242188 234.097656 253.703125 C 233.398438 254.25 232.726562 254.824219 232.058594 255.410156 C 229.738281 257.421875 227.261719 259.171875 224.726562 260.898438 C 224.511719 261.046875 224.292969 261.195312 224.074219 261.347656 C 221.367188 263.1875 218.628906 264.957031 215.800781 266.605469 C 215.191406 266.964844 214.585938 267.328125 213.980469 267.691406 C 194.550781 279.292969 171.425781 285.441406 148.847656 285.425781 C 148.453125 285.425781 148.453125 285.425781 148.046875 285.425781 C 143.359375 285.414062 138.652344 285.320312 133.996094 284.707031 C 133.574219 284.652344 133.574219 284.652344 133.144531 284.59375 C 128.167969 283.929688 123.136719 283.214844 118.316406 281.785156 C 117.570312 281.574219 116.820312 281.382812 116.070312 281.195312 C 97.109375 276.351562 78.40625 266.71875 63.597656 253.855469 C 62.78125 253.152344 61.949219 252.476562 61.105469 251.800781 C 59.859375 250.789062 58.734375 249.710938 57.613281 248.566406 C 55.933594 246.875 54.144531 245.460938 52.113281 244.214844 C 51.90625 244.085938 51.703125 243.960938 51.488281 243.828125 C 49.480469 242.710938 47.699219 242.535156 45.425781 242.453125 C 44.710938 242.414062 43.996094 242.371094 43.28125 242.328125 C 42.929688 242.308594 42.574219 242.289062 42.210938 242.269531 C 35.210938 241.804688 29.183594 239.910156 24.355469 234.492188 C 16.351562 224.417969 10.238281 211.78125 6.160156 199.617188 C 6.050781 199.292969 6.050781 199.292969 5.941406 198.964844 C 5.789062 198.515625 5.636719 198.0625 5.488281 197.609375 C 5.261719 196.9375 5.035156 196.265625 4.808594 195.589844 C 3.960938 193.074219 3.183594 190.550781 2.503906 187.984375 C 2.300781 186.957031 2.300781 186.957031 1.769531 186.101562 C 0.109375 177.019531 2.230469 170.113281 7.136719 162.464844 C 9.304688 159.078125 10.722656 156.257812 10.742188 152.179688 C 10.746094 151.921875 10.746094 151.667969 10.75 151.402344 C 10.757812 150.558594 10.761719 149.714844 10.765625 148.871094 C 10.769531 148.4375 10.769531 148.4375 10.769531 147.992188 C 10.777344 146.460938 10.785156 144.925781 10.789062 143.394531 C 10.792969 142.128906 10.800781 140.863281 10.8125 139.601562 C 10.824219 138.070312 10.832031 136.539062 10.835938 135.007812 C 10.835938 134.425781 10.839844 133.84375 10.847656 133.265625 C 10.882812 130.078125 10.882812 127.378906 9.25 124.535156 C 9.097656 124.269531 8.945312 124.007812 8.792969 123.734375 C 8.355469 122.992188 7.898438 122.273438 7.433594 121.550781 C 7.101562 121.023438 6.769531 120.496094 6.4375 119.964844 C 6.003906 119.28125 5.570312 118.59375 5.136719 117.90625 C 1.6875 112.441406 0.402344 105.519531 1.839844 99.164062 C 2 98.605469 2.167969 98.046875 2.34375 97.492188 C 2.429688 97.183594 2.519531 96.878906 2.609375 96.558594 C 3.136719 94.726562 3.789062 92.980469 4.546875 91.230469 C 4.988281 90.167969 5.382812 89.097656 5.777344 88.015625 C 6.472656 86.144531 7.246094 84.332031 8.109375 82.53125 C 8.433594 81.859375 8.75 81.183594 9.066406 80.507812 C 11.890625 74.511719 14.917969 68.625 18.273438 62.90625 C 18.605469 62.34375 18.933594 61.777344 19.261719 61.210938 C 23.621094 53.707031 27.828125 47.414062 36.578125 44.847656 C 39.664062 44.054688 42.757812 43.820312 45.933594 43.667969 C 51.328125 43.355469 54.703125 40.957031 58.316406 37.210938 C 59.171875 36.339844 60.097656 35.5625 61.03125 34.777344 C 61.308594 34.539062 61.585938 34.300781 61.871094 34.054688 C 67.929688 28.851562 74.519531 24.207031 81.417969 20.175781 C 81.855469 19.921875 82.289062 19.667969 82.722656 19.410156 C 86.882812 16.960938 91.117188 14.808594 95.554688 12.914062 C 95.925781 12.738281 96.296875 12.566406 96.667969 12.390625 C 98.152344 11.726562 99.683594 11.207031 101.21875 10.675781 C 102.367188 10.277344 103.496094 9.859375 104.617188 9.390625 C 105.691406 8.945312 106.730469 8.695312 107.867188 8.472656 C 108.546875 8.300781 109.125 8.050781 109.757812 7.753906 C 112.007812 6.703125 114.363281 6.234375 116.808594 5.902344 C 117.53125 5.757812 118.121094 5.578125 118.800781 5.328125 C 120.859375 4.621094 123.027344 4.332031 125.167969 3.976562 C 125.394531 3.9375 125.617188 3.902344 125.851562 3.863281 C 132.761719 2.699219 139.5625 2.214844 146.566406 2.234375 Z M 137.523438 6.445312 C 136.386719 6.585938 135.261719 6.660156 134.117188 6.714844 C 131.617188 6.855469 129.179688 7.234375 126.714844 7.664062 C 126.375 7.722656 126.375 7.722656 126.027344 7.78125 C 104.226562 11.519531 83.078125 21.296875 66.210938 35.640625 C 66.058594 35.769531 65.90625 35.898438 65.75 36.027344 C 63.863281 37.617188 62.011719 39.234375 60.207031 40.910156 C 60.050781 41.054688 59.890625 41.199219 59.730469 41.347656 C 59.089844 41.941406 58.449219 42.539062 57.820312 43.148438 C 53.894531 46.828125 48.863281 47.300781 43.765625 47.746094 C 37.925781 48.265625 32.695312 49.730469 28.558594 54.171875 C 24.097656 59.617188 20.890625 66.277344 17.59375 72.464844 C 17.4375 72.753906 17.28125 73.042969 17.121094 73.34375 C 15.027344 77.253906 13.070312 81.214844 11.226562 85.25 C 11.136719 85.449219 11.042969 85.648438 10.949219 85.851562 C 9.953125 88.023438 9.039062 90.191406 8.320312 92.472656 C 8.128906 93.082031 7.917969 93.679688 7.683594 94.273438 C 5.398438 100.292969 4.003906 106.035156 6.660156 112.164062 C 8.027344 115.128906 9.679688 117.917969 11.429688 120.671875 C 14.457031 125.4375 14.960938 129.46875 14.5625 135.054688 C 14.414062 137.484375 14.417969 139.902344 14.441406 142.332031 C 14.441406 142.71875 14.445312 143.105469 14.449219 143.492188 C 14.460938 145.085938 14.476562 146.679688 14.5 148.277344 C 14.507812 149.070312 14.519531 149.867188 14.523438 150.664062 C 14.527344 151.402344 14.535156 152.144531 14.550781 152.882812 C 14.558594 156.183594 13.757812 159.109375 12.054688 161.933594 C 11.941406 162.128906 11.828125 162.320312 11.714844 162.519531 C 11.007812 163.730469 10.265625 164.917969 9.519531 166.105469 C 8.648438 167.507812 7.867188 168.929688 7.128906 170.402344 C 6.984375 170.691406 6.984375 170.691406 6.835938 170.980469 C 4.292969 176.144531 4.816406 182.148438 6.371094 187.539062 C 6.457031 187.839844 6.546875 188.140625 6.632812 188.453125 C 10.203125 200.679688 15.132812 212.292969 21.683594 223.21875 C 22.019531 223.785156 22.355469 224.347656 22.6875 224.914062 C 25.941406 230.4375 29.382812 235.1875 35.714844 237.308594 C 35.914062 237.382812 36.113281 237.457031 36.316406 237.53125 C 38.578125 238.308594 40.851562 238.375 43.214844 238.476562 C 48.03125 238.695312 48.03125 238.695312 50.386719 239.324219 C 50.640625 239.378906 50.890625 239.429688 51.148438 239.488281 C 54.746094 240.40625 57.390625 243 59.996094 245.5 C 62.269531 247.671875 64.621094 249.726562 67.074219 251.695312 C 67.394531 251.957031 67.71875 252.222656 68.039062 252.488281 C 70.65625 254.636719 73.390625 256.570312 76.203125 258.449219 C 76.808594 258.851562 77.410156 259.261719 78.011719 259.671875 C 86.617188 265.503906 95.90625 270.171875 105.625 273.84375 C 105.90625 273.953125 106.191406 274.0625 106.484375 274.175781 C 110.59375 275.738281 114.761719 276.914062 119.019531 277.980469 C 119.261719 278.042969 119.503906 278.101562 119.753906 278.164062 C 123.992188 279.222656 128.25 280.023438 132.578125 280.640625 C 132.808594 280.675781 133.042969 280.710938 133.28125 280.746094 C 136.648438 281.230469 140.027344 281.371094 143.425781 281.382812 C 143.78125 281.386719 144.132812 281.386719 144.496094 281.390625 C 145.628906 281.394531 146.761719 281.398438 147.894531 281.398438 C 148.183594 281.398438 148.183594 281.398438 148.480469 281.398438 C 154.28125 281.398438 160.007812 281.34375 165.75 280.460938 C 166.085938 280.410156 166.425781 280.359375 166.773438 280.308594 C 173.78125 279.214844 180.605469 277.550781 187.328125 275.285156 C 187.789062 275.132812 188.246094 274.980469 188.707031 274.828125 C 194.40625 272.921875 200.109375 270.652344 205.421875 267.832031 C 206.132812 267.460938 206.847656 267.101562 207.5625 266.738281 C 218.351562 261.257812 228.992188 254.148438 237.382812 245.332031 C 241.945312 240.546875 246.667969 238.753906 253.214844 238.347656 C 259.785156 237.925781 265.289062 236.578125 269.894531 231.554688 C 279.90625 219.535156 286.035156 203.226562 290.320312 188.402344 C 290.445312 187.976562 290.445312 187.976562 290.570312 187.542969 C 291.835938 183.101562 292.574219 178.242188 291.183594 173.730469 C 291.113281 173.496094 291.046875 173.261719 290.980469 173.019531 C 289.894531 169.65625 287.925781 166.632812 285.949219 163.734375 C 283.113281 159.5625 282.183594 156.0625 282.144531 151.054688 C 282.140625 150.609375 282.132812 150.164062 282.128906 149.71875 C 282.113281 148.550781 282.101562 147.382812 282.089844 146.210938 C 282.078125 145.042969 282.066406 143.878906 282.050781 142.710938 C 282.019531 140.296875 282 137.886719 281.980469 135.472656 C 281.976562 134.921875 281.972656 134.367188 281.96875 133.816406 C 281.960938 132.890625 281.957031 131.964844 281.953125 131.035156 C 281.949219 130.777344 281.949219 130.519531 281.945312 130.25 C 281.941406 125.769531 283.933594 122.621094 286.230469 118.925781 C 289.824219 113.148438 292.484375 107.707031 291.164062 100.730469 C 290.578125 98.308594 289.730469 95.972656 288.867188 93.636719 C 288.605469 92.925781 288.351562 92.207031 288.101562 91.492188 C 286.542969 87.140625 284.507812 83.027344 282.453125 78.894531 C 282.074219 78.128906 281.699219 77.367188 281.328125 76.601562 C 275.363281 64.105469 275.363281 64.105469 267.015625 53.191406 C 266.839844 53.007812 266.664062 52.824219 266.484375 52.632812 C 262.378906 48.699219 256.910156 48.15625 251.535156 47.679688 C 244.796875 47.070312 240.453125 44.972656 235.796875 40.105469 C 234.941406 39.226562 234.007812 38.445312 233.070312 37.65625 C 232.796875 37.410156 232.519531 37.167969 232.238281 36.917969 C 225.476562 30.96875 217.917969 25.882812 210.027344 21.558594 C 209.515625 21.277344 209.011719 20.992188 208.503906 20.703125 C 201.972656 17.089844 194.917969 14.308594 187.8125 12.050781 C 187.496094 11.949219 187.179688 11.847656 186.851562 11.746094 C 174.503906 7.835938 161.636719 5.824219 148.6875 5.863281 C 148.351562 5.867188 148.019531 5.867188 147.671875 5.867188 C 144.257812 5.878906 140.90625 5.980469 137.523438 6.445312 Z M 137.523438 6.445312 " fill-opacity="1" fill-rule="nonzero"/></g></g></g></g><g clip-path="url(#0cb845b2de)"><g mask="url(#bb63ee9b81)"><g transform="matrix(1, 0, 0, 1, 4, 0)"><g clip-path="url(#30744bd8a2)"><g clip-path="url(#0c36a0eb0e)"><g><g clip-path="url(#76356fd294)"><g clip-path="url(#3dc761826a)"><g clip-path="url(#91cd12b72e)"><path stroke-linecap="butt" transform="matrix(1.020536, 0, 0, 1.020536, 20.083843, 20.342711)" fill="none" stroke-linejoin="miter" d="M 121.920257 0.00101823 C 54.588123 0.00101823 -0.00177569 54.587089 -0.00177569 121.923051 C -0.00177569 189.259013 54.588123 243.845084 121.920257 243.845084 C 189.256219 243.845084 243.84229 189.259013 243.84229 121.923051 C 243.84229 54.587089 189.256219 0.00101823 121.920257 0.00101823 Z M 121.920257 0.00101823 " stroke="#ffffff" stroke-width="8" stroke-opacity="1" stroke-miterlimit="4"/></g></g></g></g></g></g></g></g></g><g mask="url(#6d711c4487)"><g transform="matrix(1, 0, 0, 1, 69, 65)"><g clip-path="url(#df64d9001a)"><g clip-path="url(#1a64ea622c)"><g><g clip-path="url(#57a7b9ec88)"><g clip-path="url(#8b91649acd)"><g clip-path="url(#0eca9d7004)"><path stroke-linecap="butt" transform="matrix(1.020536, 0, 0, 1.020536, 11.323997, 11.582894)" fill="none" stroke-linejoin="miter" d="M 66.819447 -0.000845102 C 29.917105 -0.000845102 0.000217312 29.916042 0.000217312 66.822212 C 0.000217312 103.724555 29.917105 133.641442 66.819447 133.641442 C 103.725617 133.641442 133.642504 103.724555 133.642504 66.822212 C 133.642504 29.916042 103.725617 -0.000845102 66.819447 -0.000845102 Z M 66.819447 -0.000845102 " stroke="#ffffff" stroke-width="5" stroke-opacity="1" stroke-miterlimit="4"/></g></g></g></g></g></g></g></g><g mask="url(#f09ad751cb)"><g transform="matrix(1, 0, 0, 1, 105, 103)"><g clip-path="url(#5e0058b692)"><g clip-path="url(#adb4cebc76)"><path fill="#ffffff" d="M 14.097656 0.355469 C 21.363281 0.355469 27.25 6.242188 27.25 13.507812 C 27.25 20.773438 21.363281 26.660156 14.097656 26.660156 C 6.832031 26.660156 0.949219 20.773438 0.949219 13.507812 C 0.949219 6.242188 6.832031 0.355469 14.097656 0.355469 Z M 14.097656 0.355469 " fill-opacity="1" fill-rule="nonzero"/></g></g></g></g><g mask="url(#20412cfe01)"><g transform="matrix(1, 0, 0, 1, 163, 103)"><g clip-path="url(#6eac143e60)"><g clip-path="url(#eb7da98d57)"><path fill="#ffffff" d="M 13.488281 0.355469 C 20.753906 0.355469 26.640625 6.242188 26.640625 13.507812 C 26.640625 20.773438 20.753906 26.660156 13.488281 26.660156 C 6.222656 26.660156 0.335938 20.773438 0.335938 13.507812 C 0.335938 6.242188 6.222656 0.355469 13.488281 0.355469 Z M 13.488281 0.355469 " fill-opacity="1" fill-rule="nonzero"/></g></g></g></g><g mask="url(#3111a39d34)"><g transform="matrix(1, 0, 0, 1, 163, 161)"><g clip-path="url(#c78d5cd4f0)"><g clip-path="url(#99646cb056)"><path fill="#ffffff" d="M 13.488281 0.675781 C 20.753906 0.675781 26.640625 6.5625 26.640625 13.828125 C 26.640625 21.09375 20.753906 26.980469 13.488281 26.980469 C 6.222656 26.980469 0.335938 21.09375 0.335938 13.828125 C 0.335938 6.5625 6.222656 0.675781 13.488281 0.675781 Z M 13.488281 0.675781 " fill-opacity="1" fill-rule="nonzero"/></g></g></g></g><g mask="url(#1407d377d2)"><g transform="matrix(1, 0, 0, 1, 105, 161)"><g clip-path="url(#e0f3173861)"><g clip-path="url(#7837eefbe2)"><path fill="#ffffff" d="M 14.097656 0.675781 C 21.363281 0.675781 27.25 6.5625 27.25 13.828125 C 27.25 21.09375 21.363281 26.980469 14.097656 26.980469 C 6.832031 26.980469 0.949219 21.09375 0.949219 13.828125 C 0.949219 6.5625 6.832031 0.675781 14.097656 0.675781 Z M 14.097656 0.675781 " fill-opacity="1" fill-rule="nonzero"/></g></g></g></g><g mask="url(#835208e6cf)"><g transform="matrix(1, 0, 0, 1, 69, 196)"><g clip-path="url(#1df297f46c)"><g clip-path="url(#c5f9abb793)"><path fill="#ffffff" d="M 13.460938 0.351562 C 20.722656 0.351562 26.609375 6.238281 26.609375 13.503906 C 26.609375 20.769531 20.722656 26.65625 13.460938 26.65625 C 6.195312 26.65625 0.308594 20.769531 0.308594 13.503906 C 0.308594 6.238281 6.195312 0.351562 13.460938 0.351562 Z M 13.460938 0.351562 " fill-opacity="1" fill-rule="nonzero"/></g></g></g></g><g mask="url(#b993ca1fa7)"><g transform="matrix(1, 0, 0, 1, 95, 222)"><g clip-path="url(#beee437460)"><g clip-path="url(#2514014426)"><path fill="#ffffff" d="M 7.1875 0.65625 C 10.816406 0.65625 13.757812 3.597656 13.757812 7.230469 C 13.757812 10.859375 10.816406 13.804688 7.1875 13.804688 C 3.554688 13.804688 0.613281 10.859375 0.613281 7.230469 C 0.613281 3.597656 3.554688 0.65625 7.1875 0.65625 Z M 7.1875 0.65625 " fill-opacity="1" fill-rule="nonzero"/></g></g></g></g><g mask="url(#426437a04e)"><g transform="matrix(1, 0, 0, 1, 56, 183)"><g clip-path="url(#a7278c9ffa)"><g clip-path="url(#42b08790ee)"><path fill="#ffffff" d="M 6.730469 0.199219 C 10.359375 0.199219 13.304688 3.140625 13.304688 6.773438 C 13.304688 10.40625 10.359375 13.347656 6.730469 13.347656 C 3.097656 13.347656 0.15625 10.40625 0.15625 6.773438 C 0.15625 3.140625 3.097656 0.199219 6.730469 0.199219 Z M 6.730469 0.199219 " fill-opacity="1" fill-rule="nonzero"/></g></g></g></g><g mask="url(#06e14bf2df)"><g transform="matrix(1, 0, 0, 1, 200, 66)"><g clip-path="url(#c24d1f54f4)"><g clip-path="url(#e9a2813c01)"><path fill="#ffffff" d="M 13.273438 0.519531 C 20.539062 0.519531 26.425781 6.40625 26.425781 13.671875 C 26.425781 20.9375 20.539062 26.824219 13.273438 26.824219 C 6.007812 26.824219 0.121094 20.9375 0.121094 13.671875 C 0.121094 6.40625 6.007812 0.519531 13.273438 0.519531 Z M 13.273438 0.519531 " fill-opacity="1" fill-rule="nonzero"/></g></g></g></g><g mask="url(#e5419d41a8)"><g transform="matrix(1, 0, 0, 1, 226, 92)"><g clip-path="url(#540698863d)"><g clip-path="url(#bc312611b1)"><path fill="#ffffff" d="M 7 0.824219 C 10.632812 0.824219 13.574219 3.769531 13.574219 7.398438 C 13.574219 11.03125 10.632812 13.972656 7 13.972656 C 3.367188 13.972656 0.425781 11.03125 0.425781 7.398438 C 0.425781 3.769531 3.367188 0.824219 7 0.824219 Z M 7 0.824219 " fill-opacity="1" fill-rule="nonzero"/></g></g></g></g><g mask="url(#2131c19e1c)"><g transform="matrix(1, 0, 0, 1, 186, 53)"><g clip-path="url(#a05dbb8b13)"><g clip-path="url(#0f55fa2f65)"><path fill="#ffffff" d="M 7.542969 0.371094 C 11.175781 0.371094 14.117188 3.3125 14.117188 6.941406 C 14.117188 10.574219 11.175781 13.515625 7.542969 13.515625 C 3.914062 13.515625 0.96875 10.574219 0.96875 6.941406 C 0.96875 3.3125 3.914062 0.371094 7.542969 0.371094 Z M 7.542969 0.371094 " fill-opacity="1" fill-rule="nonzero"/></g></g></g></g><g mask="url(#8945890172)"><g transform="matrix(1, 0, 0, 1, 200, 196)"><g clip-path="url(#0cee879bc4)"><g clip-path="url(#b40934e71f)"><path fill="#ffffff" d="M 26.425781 13.503906 C 26.425781 20.769531 20.539062 26.65625 13.273438 26.65625 C 6.007812 26.65625 0.121094 20.769531 0.121094 13.503906 C 0.121094 6.238281 6.007812 0.351562 13.273438 0.351562 C 20.539062 0.351562 26.425781 6.238281 26.425781 13.503906 Z M 26.425781 13.503906 " fill-opacity="1" fill-rule="nonzero"/></g></g></g></g><g mask="url(#fdf21720fd)"><g transform="matrix(1, 0, 0, 1, 186, 222)"><g clip-path="url(#04fbabbd14)"><g clip-path="url(#1e836a79f1)"><path fill="#ffffff" d="M 14.117188 7.230469 C 14.117188 10.859375 11.175781 13.804688 7.542969 13.804688 C 3.914062 13.804688 0.96875 10.859375 0.96875 7.230469 C 0.96875 3.597656 3.914062 0.65625 7.542969 0.65625 C 11.175781 0.65625 14.117188 3.597656 14.117188 7.230469 Z M 14.117188 7.230469 " fill-opacity="1" fill-rule="nonzero"/></g></g></g></g><g mask="url(#f8408ea310)"><g transform="matrix(1, 0, 0, 1, 226, 183)"><g clip-path="url(#74a0c53a2f)"><g clip-path="url(#ad7227e359)"><path fill="#ffffff" d="M 13.574219 6.773438 C 13.574219 10.40625 10.632812 13.347656 7 13.347656 C 3.367188 13.347656 0.425781 10.40625 0.425781 6.773438 C 0.425781 3.140625 3.367188 0.199219 7 0.199219 C 10.632812 0.199219 13.574219 3.140625 13.574219 6.773438 Z M 13.574219 6.773438 " fill-opacity="1" fill-rule="nonzero"/></g></g></g></g><g mask="url(#7701caacac)"><g transform="matrix(1, 0, 0, 1, 69, 66)"><g clip-path="url(#a8c765af44)"><g clip-path="url(#f1d81f884c)"><path fill="#ffffff" d="M 0.308594 13.671875 C 0.308594 6.40625 6.195312 0.523438 13.460938 0.523438 C 20.722656 0.523438 26.609375 6.40625 26.609375 13.671875 C 26.609375 20.9375 20.722656 26.824219 13.460938 26.824219 C 6.195312 26.824219 0.308594 20.9375 0.308594 13.671875 Z M 0.308594 13.671875 " fill-opacity="1" fill-rule="nonzero"/></g></g></g></g><g mask="url(#dad78e8e92)"><g transform="matrix(1, 0, 0, 1, 95, 53)"><g clip-path="url(#c5344331a6)"><g clip-path="url(#9b81760f37)"><path fill="#ffffff" d="M 0.613281 6.941406 C 0.613281 3.3125 3.554688 0.371094 7.1875 0.371094 C 10.816406 0.371094 13.757812 3.3125 13.757812 6.941406 C 13.757812 10.574219 10.816406 13.515625 7.1875 13.515625 C 3.554688 13.515625 0.613281 10.574219 0.613281 6.941406 Z M 0.613281 6.941406 " fill-opacity="1" fill-rule="nonzero"/></g></g></g></g><g mask="url(#348539c976)"><g transform="matrix(1, 0, 0, 1, 56, 92)"><g clip-path="url(#d14bf9f02d)"><g clip-path="url(#4cc2465939)"><path fill="#ffffff" d="M 0.15625 7.398438 C 0.15625 3.769531 3.097656 0.824219 6.730469 0.824219 C 10.359375 0.824219 13.304688 3.769531 13.304688 7.398438 C 13.304688 11.03125 10.359375 13.972656 6.730469 13.972656 C 3.097656 13.972656 0.15625 11.03125 0.15625 7.398438 Z M 0.15625 7.398438 " fill-opacity="1" fill-rule="nonzero"/></g></g></g></g></g></g></svg>